<?xml version="1.0" standalone="no"?>
<!DOCTYPE svg PUBLIC "-//W3C//DTD SVG 20010904//EN"
 "http://www.w3.org/TR/2001/REC-SVG-20010904/DTD/svg10.dtd">
<svg version="1.0" xmlns="http://www.w3.org/2000/svg"
 width="600.000000pt" height="600.000000pt" viewBox="0 0 600.000000 600.000000"
 preserveAspectRatio="xMidYMid meet">

<g transform="translate(0.000000,600.000000) scale(0.600000,-0.600000)"
fill="#2c7ffc" stroke="none">
<path d="M442 989 c-140 -28 -238 -142 -249 -293 l-6 -71 -57 -37 c-64 -40
-108 -102 -120 -169 l-7 -38 71 -3 71 -3 24 -92 24 -92 70 -3 71 -3 13 -55 c8
-30 19 -72 24 -92 l10 -38 119 0 119 0 10 38 c5 20 16 62 24 92 l13 55 72 3
71 3 10 37 c6 20 16 62 24 92 l13 55 71 3 70 3 -7 38 c-12 67 -56 129 -120
169 l-57 37 -6 71 c-9 124 -68 214 -170 263 -70 33 -132 43 -195 30z m-23
-265 c43 -55 14 -164 -44 -164 -34 0 -65 44 -65 92 0 89 63 130 109 72z m250
0 c43 -55 14 -164 -44 -164 -34 0 -65 44 -65 92 0 89 63 130 109 72z"/>
</g>
</svg>
