<svg xmlns="http://www.w3.org/2000/svg" version="1.1" xmlns:xlink="http://www.w3.org/1999/xlink" xmlns:svgjs="http://svgjs.dev/svgjs" width="2560" height="1440" preserveAspectRatio="none" viewBox="0 0 2560 1440"><g mask="url(&quot;#SvgjsMask1004&quot;)" fill="none"><path d="M1080 326.84C1058.85 326.84 1058.54 341.81 1040 360C878.54 518.39 904.62 569.23 720 680C604.62 749.23 440 699.16 440 720C440 740.88 610.12 689.51 720 763.45C877.62 869.51 912.79 900.74 975 1080C1030.18 1239.01 1032 1330.98 954.78 1440C904.5 1510.98 837.39 1440 720 1440C540 1440 540 1440 360 1440C180 1440 90 1530 0 1440C-90 1350 0 1260 0 1080C0 900 0 900 0 720C0 540 0 540 0 360C0 180 -90 90 0 0C90 -90 180 0 360 0C540 0 540 0 720 0C900 0 900 0 1080 0C1260 0 1260 0 1440 0C1610 0 1621.35 -18.13 1780 0C1801.35 2.44 1789.57 41.14 1800 41.14C1810.65 41.14 1800.28 2.5 1822.15 0C1980.28 -18.07 1991.07 0 2160 0C2328.93 0 2332 -8.5 2497.85 0C2512 0.73 2505.91 16.35 2520 18.46C2696.98 44.98 2781.96 -35.74 2880 57.27C2961.96 135.03 2880 208.63 2880 360C2880 472.88 2906.49 481.01 2880 585.76C2860.97 661.01 2788.97 656.1 2788.97 720C2788.97 773.35 2864.4 758.57 2880 820.25C2909.92 938.57 2880 950.13 2880 1080C2880 1260 2970 1350 2880 1440C2790 1530 2700 1440 2520 1440C2391.43 1440 2357.13 1494.99 2262.86 1440C2177.13 1389.99 2236.67 1230 2160 1230C2045.24 1230 2026.51 1354.53 1880 1440C1846.51 1459.53 1840 1440 1800 1440C1620 1440 1620 1440 1440 1440C1440 1440 1440 1440 1440 1440C1359.47 1260 1284 1261.78 1278.95 1080C1274 901.78 1453.18 884.4 1420 720C1380.52 524.4 1283.13 532.89 1133.62 360C1113.13 336.31 1105.66 326.84 1080 326.84" stroke="rgba(8, 94, 193, 1)" stroke-width="2"></path><path d="M2520 1020C2425.04 1020 2316.52 1041.84 2316.52 1080C2316.52 1120.59 2431.3 1177.5 2520 1177.5C2566.47 1177.5 2586.86 1124.75 2586.86 1080C2586.86 1046 2560.21 1020 2520 1020" stroke="rgba(8, 94, 193, 1)" stroke-width="2"></path><path d="M360 180C280.41 180 223.61 252.21 200 360C164.47 522.21 187.36 555.74 241.71 720C267.36 797.53 284.07 812.05 360 843.58C523.22 911.36 563.3 843.02 720 918.62C808.3 961.23 850 992.31 850 1080C850 1203 829.33 1276.89 720 1340C584.33 1418.32 527.11 1324.18 360 1362.86C311.11 1374.18 336.27 1429.66 288 1440C156.27 1468.23 64 1520 0 1440C-80 1340 0 1260 0 1080C0 900 0 900 0 720C0 540 0 540 0 360C0 180 -90 90 0 0C90 -90 180 0 360 0C540 0 540 0 720 0C900 0 900 0 1080 0C1260 0 1260 0 1440 0C1547.5 0 1584.21 -58.66 1655 0C1764.21 90.49 1724.41 298.29 1800 298.29C1877.22 298.29 1847.31 93.89 1960.62 0C2027.31 -55.26 2060.31 0 2160 0C2259.69 0 2271.52 -32.67 2359.38 0C2451.52 34.26 2427.93 87.55 2520 133.85C2688.24 218.46 2736.8 171.86 2880 261.82C2916.8 284.94 2880 310.91 2880 360C2880 396.61 2896.96 401.82 2880 433.22C2799.72 581.82 2790.44 582.61 2685.52 720C2610.44 818.31 2615.29 904.62 2520 904.62C2388.53 904.62 2317.25 851.6 2232 720C2140.85 579.29 2202.05 538.94 2167.2 360C2166.05 354.08 2165.51 350.27 2160 350.27C2136.19 350.27 2132.28 349.2 2108.57 360C1952.28 431.21 1963.5 480.43 1800 514.29C1629.22 549.66 1598.37 549.91 1440 498.46C1360.93 472.77 1394.29 415.74 1325.11 360C1214.29 270.72 1197.31 208.42 1080 208.42C983.32 208.42 984.74 280.01 897.14 360C804.74 444.37 811.57 537.14 720 537.14C621.54 537.14 612.48 454.63 517.09 360C432.48 276.06 438.95 180 360 180" stroke="rgba(8, 94, 193, 1)" stroke-width="2"></path><path d="M1701.82 1080C1701.82 1039.73 1756.75 981.82 1800 981.82C1835.84 981.82 1860 1036.66 1860 1080C1860 1108.25 1832.41 1125 1800 1125C1753.32 1125 1701.82 1111.32 1701.82 1080" stroke="rgba(8, 94, 193, 1)" stroke-width="2"></path><path d="M2715.43 1080C2785.42 996.24 2830.53 934.18 2880 934.18C2912.81 934.18 2880 1007.09 2880 1080C2880 1260 2970 1350 2880 1440C2790 1530 2700 1440 2520 1440C2483.27 1440 2446.53 1455.44 2446.53 1440C2446.53 1417.94 2488.67 1406.94 2520 1365C2623.12 1226.94 2605.42 1211.65 2715.43 1080" stroke="rgba(8, 94, 193, 1)" stroke-width="2"></path><path d="M0 270C8.6 270 21.65 313.53 33.33 360C78.22 538.53 123.71 548.74 113.14 720C107.05 818.74 30.63 900 0 900C-25.94 900 0 810 0 720C0 540 0 540 0 360C0 315 -8.06 270 0 270" stroke="rgba(8, 94, 193, 1)" stroke-width="2"></path><path d="M680.73 360C535.25 182.96 384.49 105.52 396 0C404.12 -74.48 558 0 720 0C900 0 900 0 1080 0C1260 0 1260 0 1440 0C1485 0 1530 -30.78 1530 0C1530 84.93 1527.97 213.84 1440 231.43C1302.97 258.84 1243.75 59.3 1080 90C900.89 123.58 915.78 223.5 754.29 360C735.78 375.65 737.72 394.29 720 394.29C700.94 394.29 697.25 380.11 680.73 360" stroke="rgba(8, 94, 193, 1)" stroke-width="2"></path><path d="M2160 107.03C2129.54 107.03 2099.08 35.8 2099.08 0C2099.08 -17.71 2129.54 0 2160 0C2190.46 0 2220.92 -17.71 2220.92 0C2220.92 35.8 2190.46 107.03 2160 107.03" stroke="rgba(8, 94, 193, 1)" stroke-width="2"></path><path d="M2347.2 360C2366.61 275.39 2430.08 249.23 2520 249.23C2633.23 249.23 2741.3 267.43 2753.51 360C2772.34 502.82 2676.75 545.97 2582.07 720C2559.99 760.58 2555.73 789.23 2520 789.23C2470.7 789.23 2434.43 775.72 2412 720C2348.03 561.11 2312.61 510.78 2347.2 360" stroke="rgba(8, 94, 193, 1)" stroke-width="2"></path><path d="M193.17 1080C193.17 1025.5 269.32 978.98 360 977.91C532.73 975.87 541.32 1023.81 720 1073.79C723.82 1074.86 725 1076.63 725 1080C725 1084.73 725.26 1088.24 720 1090C542.76 1149.31 530.13 1205.37 360 1202.14C266.71 1200.37 193.17 1137.61 193.17 1080" stroke="rgba(8, 94, 193, 1)" stroke-width="2"></path><path d="M2844 1080C2844 1059.06 2869.18 1048.1 2880 1048.1C2887.18 1048.1 2880 1064.05 2880 1080C2880 1137.28 2888.79 1194.55 2880 1194.55C2870.79 1194.55 2844 1132.28 2844 1080" stroke="rgba(8, 94, 193, 1)" stroke-width="2"></path><path d="M0 1256C38.33 1256 138 1382.5 138 1440C138 1474.5 29.57 1479.43 0 1440C-39.43 1387.43 -30.67 1256 0 1256" stroke="rgba(8, 94, 193, 1)" stroke-width="2"></path></g><defs><mask id="SvgjsMask1004"><rect width="2560" height="1440" fill="#ffffff"></rect></mask></defs></svg>